<svg width="345" height="64" viewBox="0 0 345 64" fill="none" xmlns="http://www.w3.org/2000/svg">
<mask id="path-1-inside-1_2836_49" fill="gray">
<path fill-rule="evenodd" clip-rule="evenodd" d="M133.289 0H129.375H86.25H0V44C0 55.0457 8.9543 64 20 64H325C336.046 64 345 55.0457 345 44V0H212.132L184.024 28.1076C177.776 34.356 167.645 34.356 161.397 28.1076L133.289 0Z"/>
</mask>
<path fill-rule="evenodd" clip-rule="evenodd" d="M133.289 0H129.375H86.25H0V44C0 55.0457 8.9543 64 20 64H325C336.046 64 345 55.0457 345 44V0H212.132L184.024 28.1076C177.776 34.356 167.645 34.356 161.397 28.1076L133.289 0Z" fill="black"/>
<path d="M133.289 0L133.996 -0.707107L133.704 -1H133.289V0ZM0 0V-1H-1V0H0ZM345 0H346V-1H345V0ZM212.132 0V-1H211.718L211.425 -0.707107L212.132 0ZM184.024 28.1076L183.317 27.4005V27.4005L184.024 28.1076ZM161.397 28.1076L162.104 27.4005V27.4005L161.397 28.1076ZM129.375 1H133.289V-1H129.375V1ZM86.25 1H129.375V-1H86.25V1ZM0 1H86.25V-1H0V1ZM1 44V0H-1V44H1ZM20 63C9.50659 63 1 54.4934 1 44H-1C-1 55.598 8.40202 65 20 65V63ZM325 63H20V65H325V63ZM344 44C344 54.4934 335.493 63 325 63V65C336.598 65 346 55.598 346 44H344ZM344 0V44H346V0H344ZM212.132 1H345V-1H212.132V1ZM211.425 -0.707107L183.317 27.4005L184.731 28.8148L212.839 0.707107L211.425 -0.707107ZM183.317 27.4005C177.459 33.2584 167.962 33.2584 162.104 27.4005L160.69 28.8148C167.329 35.4537 178.093 35.4537 184.731 28.8148L183.317 27.4005ZM162.104 27.4005L133.996 -0.707107L132.582 0.707107L160.69 28.8148L162.104 27.4005Z" fill="#EBEBEB" mask="url(#path-1-inside-1_2836_49)"/>
</svg>
